<svg width="16" height="17" viewBox="0 0 16 17" fill="none" xmlns="http://www.w3.org/2000/svg">
<g id="icon">
<path id="Vector" d="M8 0.5C3.58873 0.5 0 4.08873 0 8.5C0 12.9113 3.589 16.5 8 16.5C12.411 16.5 16 12.9113 16 8.5C16 4.08873 12.4113 0.5 8 0.5Z" fill="#008C56"/>
<path id="Vector_2" d="M11.5351 5.2013C11.7058 5.41094 11.8802 5.63393 12.0554 5.86681C12.0922 6.34164 12.1021 6.77668 12.1395 7.25231C12.1341 7.45581 12.0717 7.7258 12.0124 7.75144C12.0124 7.75144 11.9218 7.80352 11.8612 7.74583C11.8171 7.72821 11.6412 7.45233 11.6412 7.45233C11.5512 7.36981 11.4911 7.39331 11.427 7.45233C11.2502 7.62299 11.1703 7.94265 11.0502 8.16271C11.0192 8.21185 10.9318 8.25378 10.8349 8.15897C10.633 7.88337 10.6934 7.51242 10.7049 7.45501L10.7022 7.46649C10.4829 7.71379 10.5799 8.12319 10.6295 8.21132C10.7019 8.35606 10.7604 8.44873 10.9011 8.52003C11.0293 8.61431 11.1292 8.55555 11.1842 8.48932C11.3132 8.35579 11.3148 8.01396 11.3754 7.94613C11.4179 7.82194 11.5242 7.84331 11.5763 7.89832C11.6265 7.9707 11.686 8.0177 11.76 8.05695C11.8802 8.16298 12.0239 8.18247 12.1654 8.08553C12.2621 8.03132 12.3248 7.96081 12.3814 7.82168C12.4421 7.65931 12.4122 6.80766 12.3985 6.33389C12.4893 6.46182 12.5791 6.59267 12.6683 6.72487C12.7075 7.14068 12.7251 7.55035 12.7123 7.94292C12.703 8.0209 12.9847 7.70978 12.9829 7.56236C12.9815 7.43337 12.9831 7.3164 12.9829 7.20771C13.1198 7.42578 13.2512 7.64733 13.3768 7.87215C13.4542 7.83102 13.4278 7.39251 13.3786 7.33189C13.2478 7.11237 13.0801 6.87496 12.9503 6.69122C12.9246 6.45941 12.8897 6.18594 12.8739 6.10235C12.8491 5.97176 12.8242 5.77548 12.7868 5.62058C12.7767 5.55996 12.7454 5.36661 12.7553 5.34818C12.7705 5.30492 12.8282 5.34952 12.8568 5.29931C12.8993 5.25284 12.7094 4.76092 12.613 4.62045C12.5783 4.55742 12.5155 4.57932 12.4381 4.6816C12.3662 4.7489 12.3924 4.90273 12.4199 5.04881C12.4912 5.42136 12.555 5.80058 12.6055 6.179C12.512 6.04013 12.3983 5.87242 12.2861 5.71058L12.2717 5.63687C12.2717 5.6302 12.2562 5.33216 12.2431 5.26112C12.2407 5.23228 12.234 5.224 12.2642 5.22774C12.2963 5.25471 12.3005 5.25605 12.3206 5.26513C12.3529 5.271 12.3812 5.21626 12.3617 5.16578L12.0615 4.6111C12.0495 4.59935 12.0359 4.5868 12.0204 4.5844C12.0049 4.58199 11.9878 4.58974 11.9688 4.61778C11.9453 4.63823 11.9265 4.66352 11.9136 4.69191C11.9008 4.72029 11.8942 4.75112 11.8943 4.78229C11.9031 4.91341 11.9266 5.04774 11.9355 5.17914L11.9451 5.23175C11.9345 5.21819 11.9234 5.20509 11.9117 5.19249C11.6558 4.92383 12.0292 5.14869 11.8628 4.94092C11.7221 4.78656 11.6809 4.73742 11.5608 4.64448C11.5004 4.60549 11.4638 4.53098 11.4441 4.65784C11.4363 4.76947 11.428 4.89846 11.4355 4.99246C11.4342 5.04507 11.4884 5.14335 11.5351 5.2013ZM5.23496 7.1754C5.23202 7.224 5.36902 7.28302 5.3773 7.39519C5.3968 7.44139 5.34793 7.58987 5.38879 7.60349C5.42617 7.61898 5.47825 7.50094 5.49775 7.39118C5.5087 7.33109 5.45074 7.12092 5.35247 7.08326C5.33714 7.07987 5.32141 7.07861 5.30573 7.07952C5.25819 7.08299 5.21573 7.10836 5.23496 7.1754Z" fill="white"/>
<path id="Vector_3" d="M11.9493 6.36097C11.9457 6.36041 11.942 6.36077 11.9386 6.36203C11.9386 6.36203 11.3553 6.77678 11.3409 6.79146C11.283 6.84274 11.3121 7.02354 11.3409 7.00271C11.3829 7.01873 11.9698 6.62081 11.9586 6.57435C11.9843 6.57568 11.9968 6.36951 11.9493 6.36097ZM13.0215 5.41531C13.0421 5.47834 12.9903 5.68157 13.033 5.70026C13.0723 5.72136 13.1273 5.55979 13.1478 5.4105C13.1591 5.32879 13.0987 5.04196 12.9959 4.99069C12.9878 4.98851 12.9794 4.98726 12.971 4.98695C12.9123 4.98481 12.8482 5.02941 12.8736 5.11701C12.8586 5.16481 12.9988 5.32665 13.0215 5.41531ZM11.6211 6.36577C11.6232 6.24747 11.6347 6.0899 11.6411 5.99189C11.6438 5.95504 11.6526 5.91418 11.6878 5.90483C11.7234 5.89548 11.7848 5.94035 11.7853 5.90189C11.7789 5.82658 11.7637 5.71549 11.7212 5.66287C11.7106 5.64749 11.6965 5.63482 11.6801 5.62587C11.6637 5.61692 11.6454 5.61194 11.6267 5.61133C11.565 5.6084 11.499 5.64845 11.4822 5.73284C11.4825 5.78252 11.5046 5.81002 11.5004 5.85516C11.494 5.88106 11.4672 5.89789 11.4037 5.86771C11.4136 5.85863 11.3626 5.78652 11.3626 5.78652C11.3132 5.75635 11.2469 5.78813 11.2039 5.81617C11.1885 5.84552 11.1792 5.87773 11.1768 5.91081C11.1743 5.94389 11.1786 5.97712 11.1895 6.00845C11.2608 6.13957 11.5046 6.36364 11.6211 6.36577ZM9.1409 7.13837L9.14197 7.1373L9.14304 7.13624L9.1441 7.13517V7.1333C9.14434 7.13006 9.14397 7.1268 9.14304 7.12368L9.08749 7.0911L7.99468 7.0863C7.98411 7.0827 7.97413 7.07757 7.96504 7.07107L7.96317 7.0692L7.96237 7.06814L7.9613 7.06707L7.9605 7.0652L7.95943 7.06413V7.06306L7.95837 7.06199V7.05345L7.95943 7.05238L7.9605 7.05051C7.96584 7.0433 7.97866 7.03662 7.99495 7.03048C8.25587 6.99496 8.71948 6.91885 8.75019 6.47313C8.74539 6.24079 8.65085 6.08883 8.3659 6.04664C8.15652 6.06293 8.00724 6.26536 8.03127 6.48835C8.02139 6.54844 8.05157 6.66621 7.99015 6.67957C7.58849 6.71615 7.14998 6.96799 7.13529 7.14799H7.13422L7.13316 7.14906L7.13129 7.15012H7.12942L7.12648 7.15119H7.12087C7.11961 7.15087 7.11837 7.15051 7.11713 7.15012C7.09096 7.14291 7.05731 7.09965 7.06265 7.03929C7.04743 6.7279 6.94595 6.37565 6.78731 6.10432C6.7307 6.04771 6.70586 6.02474 6.68984 6.02207H6.68209C6.68049 6.0226 6.67889 6.02394 6.67729 6.02501L6.67435 6.02688C6.66206 6.03622 6.64764 6.05732 6.61506 6.08029C6.56031 6.14251 6.55043 6.18604 6.55391 6.31076C6.55711 6.32385 6.65779 6.60426 6.74325 6.80134C6.80093 7.00618 6.85408 7.24066 6.81509 7.46205C6.68022 7.75474 6.40916 8.01726 6.14771 8.16014C6.01445 8.20287 5.89935 8.18818 5.86863 8.15907L5.86757 8.158C5.8423 8.14049 5.82215 8.11656 5.80919 8.08868C5.79624 8.0608 5.79095 8.02997 5.79386 7.99937V7.9983L5.79493 7.99723C6.01552 7.84341 6.26789 7.71896 6.46524 7.30395C6.52346 7.14532 6.54135 7.04998 6.4834 6.80482C6.4607 6.71348 6.43293 6.63817 6.3707 6.57354L6.37177 6.57248C6.40943 6.55458 6.5069 6.62642 6.52186 6.58102C6.49889 6.46405 6.41958 6.30675 6.32958 6.22637C6.25106 6.15506 6.16534 6.14678 6.0935 6.21195C6.01231 6.25708 5.99522 6.41918 6.03421 6.56099C6.07747 6.66782 6.19471 6.68651 6.27803 6.90149V6.90256C6.2799 6.91591 6.30661 7.06306 6.26468 7.12235C6.2305 7.22864 5.79279 7.57394 5.76181 7.59478C5.76087 7.59546 5.75989 7.59608 5.75887 7.59664L5.7578 7.59771L5.75674 7.59878L5.75567 7.59985H5.75353L5.75273 7.59878V7.59771L5.75166 7.59584C5.75033 7.5873 5.75273 7.5654 5.75166 7.52988C5.74872 7.46525 5.77543 7.3189 5.77356 7.2938V7.29273L5.77276 7.29166V7.2906H5.77169C5.62695 7.38407 5.57914 7.67062 5.5527 7.75528C5.1863 8.00845 4.77022 8.19672 4.53067 8.45337C4.40596 8.64832 5.3906 8.22957 5.5049 8.17883L5.50784 8.18177C5.52947 8.20581 5.53134 8.28913 5.59677 8.36444C5.69905 8.50304 5.9167 8.5885 6.12848 8.53562C6.4834 8.40743 6.68797 8.16521 6.89627 7.89682C6.92592 7.85355 6.97265 7.81937 7.01592 7.85275C7.15906 8.17322 7.57166 8.40102 8.10498 8.42453C8.22836 8.27444 8.16934 8.20073 8.1194 8.16922C8.10391 8.15907 7.85421 8.06159 7.81522 7.96465C7.79092 7.87438 7.85021 7.79427 7.96905 7.73418C8.31142 7.69279 8.64818 7.64685 8.97399 7.5419C8.97719 7.4324 9.04182 7.2687 9.08482 7.19766C9.11446 7.15012 9.13369 7.14532 9.1409 7.13837ZM8.23958 6.45203C8.24043 6.44869 8.24168 6.44546 8.24332 6.44242C8.24385 6.44135 8.24438 6.43948 8.24519 6.43868L8.24599 6.43761C8.24745 6.43588 8.24906 6.43427 8.25079 6.4328C8.25892 6.42685 8.26853 6.42325 8.27857 6.42239C8.30862 6.42139 8.33828 6.42938 8.36376 6.44536C8.40729 6.47046 8.434 6.50865 8.43079 6.53616V6.53909L8.42892 6.54203L8.42785 6.54497L8.42678 6.54684L8.42572 6.54871C8.42414 6.55117 8.42226 6.55341 8.42011 6.55538C8.39928 6.57488 8.35094 6.57221 8.30527 6.54577C8.26201 6.52093 8.23557 6.48248 8.23824 6.45497C8.23878 6.45417 8.23958 6.45283 8.23958 6.45203ZM7.80267 7.5467C7.68543 7.58676 7.57273 7.61828 7.5722 7.78759C7.58769 7.87145 7.58422 7.91551 7.5714 7.93581L7.56766 7.94062L7.56659 7.94168L7.56552 7.94275L7.56472 7.94382L7.56365 7.94489L7.56178 7.94596C7.55991 7.9471 7.55794 7.94808 7.55591 7.94889L7.5503 7.94996C7.52253 7.95397 7.48193 7.92753 7.45176 7.91177C7.37938 7.85996 7.17669 7.73418 7.14758 7.46418C7.14357 7.4033 7.18897 7.35068 7.26241 7.34561H7.2747C7.39647 7.37873 7.57594 7.3822 7.73163 7.39822C7.85875 7.40543 7.92151 7.50504 7.80267 7.5467Z" fill="white"/>
<path id="Vector_4" d="M7.43562 6.49017C7.56141 6.55026 7.86131 6.51474 7.78841 6.32086C7.78717 6.28928 7.78494 6.25776 7.78173 6.22632C7.76891 6.19641 7.74514 6.18519 7.72244 6.18893C7.69974 6.19294 7.67784 6.21163 7.66983 6.24234C7.66476 6.26264 7.67945 6.29629 7.66129 6.30644C7.65087 6.31712 7.61001 6.31098 7.61161 6.2549C7.61161 6.237 7.59853 6.21751 7.59052 6.20602C7.5825 6.20068 7.57823 6.19935 7.56381 6.19935C7.54618 6.20015 7.54565 6.20469 7.53604 6.21938C7.53203 6.23433 7.52642 6.24929 7.52642 6.26611C7.52429 6.28614 7.51734 6.29282 7.50265 6.29576C7.48636 6.29576 7.4901 6.29762 7.47675 6.28908C7.46874 6.28053 7.45859 6.27706 7.45859 6.26237C7.45877 6.2455 7.45615 6.22872 7.45084 6.2127C7.4439 6.20362 7.43188 6.19961 7.41933 6.19641C7.3507 6.19668 7.34642 6.27466 7.35043 6.30457C7.34536 6.31018 7.34188 6.45118 7.43562 6.49017ZM11.9759 11.7213C11.9008 11.7325 11.6899 11.7539 11.6899 11.7539C11.446 11.7248 11.2671 11.7218 10.9928 11.7117C11.0182 11.6797 11.0628 11.5493 11.0081 11.5023C10.9939 11.4906 10.9725 11.4839 10.9432 11.486H10.9402L10.9392 11.485L10.9362 11.4839C10.9344 11.4825 10.9328 11.4809 10.9314 11.4791L10.9295 11.4772C10.9157 11.4569 10.9082 11.4075 10.8988 11.395L10.8978 11.3939L10.897 11.3928L10.8951 11.3918H10.893L10.8922 11.3926C10.7108 11.439 10.7164 11.6273 10.8329 11.7101C8.9178 11.7101 5.97855 11.6775 5.34829 11.6775C4.99578 11.6775 3.88001 11.6353 3.85864 11.6353C4.09793 11.9852 4.44457 12.0565 4.89803 12.0637C5.74861 12.0637 9.69013 12.0533 10.8118 12.0533C10.7319 12.1948 10.819 12.4226 10.8815 12.4645L10.8863 12.4675C10.8887 12.4685 10.8916 12.4699 10.894 12.4704H10.897C10.9712 12.488 11.0038 12.4341 11.0289 12.3948C11.1493 12.4055 11.8274 12.4151 11.8894 12.3938L11.8904 12.3927C11.9323 12.4544 11.974 12.5129 12.0539 12.5027C12.1935 12.4728 12.3038 12.4576 12.3073 12.1737C12.3076 12.1745 12.2931 11.6911 11.9759 11.7213ZM11.8391 12.2397L11.8343 12.2415H11.8269L11.5927 12.2349C11.5927 12.2303 11.5921 12.2258 11.5908 12.2215C11.5692 12.1577 11.4132 12.162 11.3766 12.2119L11.3747 12.2148L11.3729 12.2186L11.371 12.2234L11.3699 12.2301C11.3697 12.2325 11.3689 12.2354 11.3689 12.2378C11.2463 12.2525 11.1357 12.2338 11.0131 12.2293C10.9771 12.1844 10.9814 12.1035 11.0236 12.084H11.0244C11.3037 12.0976 11.5662 12.0866 11.8458 12.1003C11.8902 12.1377 11.868 12.2239 11.8391 12.2397ZM8.5586 8.35771C8.5586 8.36252 8.60774 8.40471 8.66569 8.37107C8.78774 8.3246 8.86385 8.2792 9.03477 8.24208C9.07963 8.24127 9.07696 8.1211 9.00619 8.11683C8.91352 8.12137 8.82806 8.12617 8.73566 8.19908C8.67878 8.21217 8.6689 8.17745 8.65635 8.14647C8.64192 8.06929 8.68893 8.01508 8.67931 7.95713C8.68198 7.9598 8.65047 7.93149 8.61041 7.92935C8.59584 7.92843 8.58128 7.93138 8.56822 7.9379C8.56528 7.9379 8.43949 8.02309 8.3989 8.08238C8.37406 8.10107 8.377 8.11763 8.38448 8.15021C8.40371 8.19454 8.43762 8.18065 8.47635 8.15982C8.52762 8.15288 8.55219 8.18626 8.54819 8.24768C8.52442 8.3246 8.5586 8.35291 8.5586 8.35771ZM12.7811 8.32727C12.7573 8.30003 12.7033 8.31632 12.6673 8.31205C12.6502 8.31205 12.5936 8.30377 12.6206 8.25383C12.643 8.22285 12.6513 8.20415 12.6665 8.16596C12.6836 8.12858 12.6686 8.10321 12.6072 8.08291C12.5823 8.07786 12.557 8.07562 12.5316 8.07623C12.5089 8.07703 12.4849 8.07997 12.4504 8.08291C12.4131 8.09092 12.4 8.10721 12.393 8.15261C12.3957 8.22151 12.4379 8.21804 12.4809 8.24528C12.506 8.27706 12.522 8.3059 12.479 8.35798C12.4382 8.39537 12.409 8.4162 12.3682 8.45359C12.349 8.48644 12.3369 8.53718 12.396 8.55293C12.5049 8.58364 12.7573 8.41967 12.7573 8.4162C12.7982 8.38549 12.7845 8.32727 12.7811 8.32727ZM10.8315 8.00146C10.9191 8.00199 11.0206 7.8009 11.0639 7.60167C11.0876 7.3274 11.0481 7.16049 11.0409 6.99919C11.0337 6.83788 10.8585 5.5301 10.823 5.40805C10.78 5.17731 10.9936 5.37761 10.9701 5.24355C10.8964 5.0745 10.7122 4.82827 10.6547 4.68139C10.6331 4.64213 10.6304 4.60554 10.6125 4.60875C10.6019 4.61062 10.5861 4.62691 10.557 4.6651C10.4852 4.90038 10.4598 5.09266 10.4873 5.23874C10.6724 6.20415 10.8617 7.08304 10.8315 8.00146Z" fill="white"/>
<path id="Vector_5" d="M13.565 5.44741C13.5567 5.38652 13.5297 5.24658 13.5401 5.22842C13.557 5.18569 13.6411 5.23269 13.6713 5.18355C13.7153 5.13869 13.4533 4.80299 13.3615 4.65958C13.343 4.62353 13.3318 4.59389 13.3155 4.59549C13.303 4.59683 13.2875 4.61712 13.264 4.66706C13.2071 4.76 13.1876 4.92638 13.2103 5.07353C13.347 5.99755 13.4485 6.89246 13.4694 7.71153C13.4576 7.78924 13.4541 7.83064 13.4178 7.92865C13.3372 8.032 13.2482 8.16152 13.1644 8.22401C13.0805 8.2865 12.9024 8.34606 12.8439 8.39226C12.6591 8.49908 12.658 8.6222 12.8076 8.62647C13.0653 8.59656 13.37 8.57546 13.5802 8.25846C13.6363 8.16953 13.7025 7.92865 13.7054 7.78123C13.7252 6.91703 13.6945 6.07206 13.565 5.44741ZM11.8617 7.4872C11.9009 7.5083 12.004 7.38144 12.0003 7.22228C12.0118 7.14056 11.9712 6.83931 11.8683 6.78804C11.8562 6.78478 11.8435 6.78379 11.831 6.7851C11.7773 6.79178 11.7263 6.84252 11.7498 6.92371C11.7351 6.97151 11.8227 7.13815 11.8454 7.22682C11.8659 7.29011 11.8192 7.46824 11.8617 7.4872ZM3.74683 4.92824C3.87262 4.98833 4.1087 4.96296 4.09882 4.76C4.09784 4.72843 4.09588 4.6969 4.09294 4.66546C4.08012 4.63555 4.05662 4.62433 4.03392 4.62834C4.01122 4.63234 3.98932 4.65104 3.98131 4.68175C3.97624 4.70205 3.99013 4.7357 3.9717 4.74584C3.96128 4.75653 3.92122 4.74932 3.92283 4.69323C3.92283 4.67534 3.90974 4.65665 3.90173 4.64543C3.89372 4.64036 3.88838 4.63875 3.87395 4.63875C3.85633 4.63955 3.85686 4.6441 3.84725 4.65878C3.84298 4.67374 3.83737 4.68843 3.83737 4.70552C3.83523 4.72555 3.82722 4.73222 3.81253 4.73516C3.79624 4.73516 3.79998 4.73703 3.78663 4.72849C3.77888 4.71994 3.76954 4.71647 3.76954 4.70178C3.76934 4.68487 3.76646 4.6681 3.76099 4.65211C3.75405 4.64303 3.7431 4.63822 3.73028 4.63501C3.66164 4.63528 3.65657 4.71433 3.66058 4.74397C3.65577 4.74932 3.6531 4.88925 3.74683 4.92824ZM5.64802 5.58521C5.62685 5.58489 5.6061 5.59125 5.58874 5.60337C5.47737 5.66346 5.43438 5.84212 5.50355 5.94654C5.56817 6.03867 5.67072 6.00476 5.68434 6.00476C5.7933 6.01838 5.85847 5.80019 5.85847 5.80019C5.85847 5.80019 5.86167 5.73877 5.73215 5.85467C5.67767 5.86482 5.67019 5.84532 5.65657 5.81461C5.64361 5.7572 5.6496 5.69714 5.67366 5.64343C5.68595 5.60951 5.67393 5.58788 5.64802 5.58521ZM10.1744 7.80527C9.97196 8.01651 9.68034 8.27716 9.36254 8.39707C9.32835 8.43552 9.44746 8.59896 9.60155 8.5987C9.85927 8.56878 10.0857 8.42404 10.2956 8.04321C10.3517 7.95428 10.4505 7.76414 10.4535 7.61672C10.4732 6.75252 10.4099 6.0806 10.2804 5.45595C10.2721 5.39506 10.2777 5.32322 10.2882 5.3048C10.3047 5.28477 10.3613 5.30533 10.3915 5.25593C10.4356 5.21106 10.274 4.83825 10.1821 4.69457C10.1637 4.65852 10.1525 4.62994 10.1362 4.63154C10.1237 4.63288 10.1082 4.65237 10.0847 4.70231C10.028 4.79525 9.98932 4.95709 9.99386 5.10878C10.1167 5.95989 10.1544 6.70445 10.2348 7.55557C10.2412 7.63809 10.2291 7.75746 10.1744 7.80527ZM3.16732 6.52926C2.86501 6.53487 2.42276 6.92531 2.41101 7.14216C2.72988 6.98913 3.04314 6.84172 3.36708 6.68309C3.31473 6.60511 3.36387 6.53487 3.16732 6.52926ZM2.58139 8.13268C2.50181 8.29398 2.46896 8.18369 2.46175 8.09342C2.44947 7.9225 2.46602 7.76494 2.48472 7.64022C2.4946 7.5764 2.49433 7.55396 2.48659 7.55423C2.47911 7.5545 2.46362 7.5772 2.44359 7.6031C2.26386 7.88939 2.24784 8.31695 2.34692 8.4446C2.39953 8.50496 2.48659 8.5314 2.55068 8.51244C2.66365 8.46356 2.71332 8.23469 2.68635 8.15111C2.64869 8.09182 2.61905 8.08247 2.58139 8.13268Z" fill="white"/>
<path id="Vector_6" d="M2.61672 6.26827C2.98392 6.30352 2.78123 5.64736 2.91422 5.52825C2.93933 5.4695 2.98579 5.46843 2.9898 5.54267V6.10003C2.98633 6.28136 3.1057 6.33504 3.19837 6.37242C3.29478 6.36495 3.35861 6.36762 3.39626 6.46136C3.41122 6.78263 3.42697 7.1047 3.4422 7.42624C3.4422 7.42624 3.66492 7.49033 3.67561 6.88411C3.68629 6.52812 3.60484 6.22955 3.65264 6.16038C3.65424 6.09228 3.74157 6.08908 3.80166 6.12219C3.89753 6.19002 3.94026 6.27335 4.08955 6.2397C4.31655 6.1772 4.45328 6.06691 4.45675 5.89252C4.4434 5.72694 4.42417 5.5611 4.3526 5.39526C4.36275 5.36508 4.30907 5.28683 4.31922 5.25665C4.36008 5.32048 4.42177 5.31514 4.43592 5.25665C4.3972 5.12927 4.33711 5.00722 4.2399 4.95461C4.15952 4.88384 4.04201 4.8988 3.99901 5.04648C3.97898 5.2166 4.0607 5.41822 4.18462 5.583C4.21106 5.64736 4.24765 5.75445 4.23135 5.85059C4.16539 5.88825 4.10023 5.87249 4.04495 5.81427C4.04495 5.81427 3.86415 5.67887 3.86415 5.64896C3.91222 5.34185 3.87456 5.30686 3.84786 5.22167C3.82916 5.10416 3.77362 5.06678 3.72822 4.98639C3.68308 4.93859 3.62166 4.93859 3.59255 4.98639C3.5127 5.125 3.55009 5.42223 3.60777 5.55523C3.64943 5.67781 3.71353 5.75418 3.68335 5.75418C3.65851 5.82335 3.60697 5.80733 3.56958 5.72748C3.51644 5.56244 3.50549 5.31648 3.50549 5.20538C3.48947 5.06785 3.47157 4.77408 3.38131 4.69957C3.35727 4.66672 3.3287 4.65524 3.30092 4.65844C3.2654 4.66272 3.23202 4.69156 3.21573 4.73028C3.20791 4.8632 3.21077 4.99654 3.22428 5.129C3.28624 5.34959 3.306 5.54374 3.33617 5.76967C3.34445 6.07225 3.16152 5.90053 3.1698 5.75045C3.21199 5.55549 3.20078 5.24891 3.16312 5.17093C3.13321 5.09322 3.09876 5.07399 3.02639 5.08681C2.96897 5.08333 2.82022 5.24517 2.77882 5.5133C2.77882 5.5133 2.74411 5.65083 2.72915 5.77341C2.70885 5.91175 2.61699 6.00976 2.55316 5.75418C2.49788 5.56831 2.46396 5.11057 2.37156 5.21766C2.34459 5.57472 2.31307 6.20364 2.61672 6.26827Z" fill="white"/>
<path id="Vector_7" d="M2.73404 4.92156C2.75327 4.96963 2.71481 5.12426 2.75514 5.13868C2.79199 5.1547 2.843 5.03159 2.86223 4.91782C2.87291 4.8556 2.8649 4.64222 2.71989 4.59842C2.71234 4.59675 2.70465 4.59577 2.69692 4.59548C2.64137 4.59388 2.58022 4.62833 2.60425 4.69483C2.59036 4.73142 2.71268 4.85399 2.73404 4.92156ZM4.83125 7.70351C4.96211 7.26767 4.82858 6.93892 4.87238 6.89833L4.87425 6.89726L4.87612 6.89619L4.87799 6.89512L4.88359 6.89405C5.04517 7.06818 5.2719 6.91622 5.32157 6.85586C5.34293 6.82569 5.39608 6.80619 5.43347 6.84545C5.55952 6.93598 5.78038 6.89325 5.82658 6.73355C5.85328 6.57732 5.87572 6.41655 5.88106 6.24964C5.79907 6.27501 5.73284 6.29424 5.70613 6.32228C5.69991 6.32863 5.69556 6.33658 5.69358 6.34525L5.67248 6.48385C5.6718 6.4875 5.67054 6.49102 5.66875 6.49427C5.66484 6.50017 5.65963 6.5051 5.65352 6.50869C5.62441 6.52444 5.57394 6.51536 5.57127 6.47344C5.53228 6.29584 5.37151 6.27288 5.27377 6.54795C5.20807 6.60109 5.08843 6.61151 5.07588 6.53165C5.0919 6.34712 5.01739 6.32228 4.86837 6.40934C4.82057 6.04374 4.77303 5.69443 4.72496 5.32882C4.78719 5.32696 4.84407 5.37209 4.90095 5.30105C4.83953 5.10984 4.70947 4.72073 4.63603 4.68441L4.63416 4.68334C4.63103 4.67955 4.62754 4.67606 4.62375 4.67293L4.61894 4.66919L4.61413 4.66625C4.61107 4.66466 4.60785 4.66341 4.60452 4.66251C4.59784 4.66064 4.59143 4.65984 4.58449 4.66064C4.56633 4.66305 4.54603 4.67346 4.52226 4.6788C4.44428 4.70364 4.37111 4.77121 4.39408 4.9026C4.48648 5.46342 4.54657 5.89152 4.6387 6.45261C4.65286 6.5183 4.59784 6.60483 4.5268 6.59602C4.40609 6.5143 4.37618 6.34899 4.17028 6.35593C4.02126 6.3578 3.85115 6.5199 3.82978 6.67613C3.80495 6.80032 3.79613 6.93491 3.82978 7.04334C3.93447 7.16939 4.06025 7.15604 4.17028 7.12746C4.26081 7.09034 4.33532 7.00088 4.3671 7.02224H4.36817V7.02331C4.38793 7.05776 4.3663 7.34966 3.94168 7.57505C3.68076 7.69229 3.47299 7.72033 3.36136 7.50722C3.29219 7.37396 3.36644 6.86708 3.19605 6.98432C2.69185 8.28356 4.37698 8.46516 4.56526 7.03773C4.57755 6.9974 4.61467 6.95708 4.64084 6.96696C4.65232 6.97177 4.66274 6.98752 4.66674 7.01663C4.62775 8.30893 3.36323 8.39759 3.14825 7.99086C3.09511 7.89499 3.07908 7.68187 3.07374 7.55395C3.06413 7.47651 3.04463 7.43191 3.0222 7.41428C2.97092 7.37583 2.90202 7.47624 2.88733 7.65036C2.86597 7.79057 2.87211 7.82902 2.87211 7.96389C2.93941 8.98512 4.5666 8.54661 4.83125 7.70351ZM4.2026 6.82035V6.82141C4.20233 6.82195 4.20206 6.82302 4.20153 6.82328C4.18898 6.83957 4.14438 6.8329 4.1126 6.8329C4.07414 6.8313 4.05545 6.82488 4.03221 6.79364C4.02126 6.75892 4.05465 6.72474 4.0696 6.6991L4.0704 6.69803C4.07239 6.69526 4.07463 6.69267 4.07708 6.69029C4.09527 6.67482 4.11836 6.66631 4.14224 6.66625C4.17188 6.66652 4.20313 6.68121 4.21969 6.7226C4.22577 6.73895 4.22739 6.75661 4.22438 6.77379C4.22138 6.79097 4.21386 6.80703 4.2026 6.82035ZM9.58329 5.84558C9.70907 5.90567 9.94622 5.87923 9.93607 5.67627C9.93483 5.64469 9.93261 5.61316 9.92939 5.58173C9.91658 5.55182 9.89281 5.5406 9.87011 5.54434C9.84741 5.54835 9.82551 5.56784 9.8175 5.59882C9.81242 5.61912 9.82711 5.6517 9.80895 5.66185C9.79854 5.67253 9.75768 5.66639 9.75928 5.6103C9.75928 5.59241 9.74619 5.57292 9.73818 5.56143C9.73017 5.55636 9.72483 5.55476 9.71041 5.55476C9.69278 5.55556 9.69332 5.5601 9.6837 5.57478C9.6797 5.58974 9.67409 5.6047 9.67409 5.62152C9.67195 5.64155 9.66501 5.64823 9.65032 5.65116C9.63403 5.65116 9.63697 5.65303 9.62361 5.64449C9.6156 5.63594 9.60652 5.63247 9.60652 5.61778C9.60633 5.60087 9.60344 5.58411 9.59798 5.56811C9.59103 5.55903 9.58008 5.55502 9.56726 5.55182C9.49863 5.55209 9.49462 5.63007 9.49836 5.65998C9.49302 5.66585 9.48955 5.80686 9.58329 5.84558ZM9.66821 5.05883C9.71308 5.18461 9.63403 5.30452 9.68076 5.32188C9.72376 5.34138 9.78358 5.19209 9.80601 5.05429C9.83192 4.94266 9.75233 4.71432 9.63964 4.66705C9.63086 4.66512 9.62191 4.66414 9.61293 4.66412C9.54857 4.66225 9.477 4.70284 9.50477 4.78376C9.48848 4.82756 9.64337 4.97684 9.66821 5.05883Z" fill="white"/>
<path id="Vector_8" d="M4.98156 5.66394H4.98263L4.9837 5.66501H4.98476L4.98583 5.66608C5.0096 5.6821 5.30417 5.68183 5.33675 5.66714L5.33755 5.66608H5.33862V5.66501C5.43983 5.62762 5.92 5.07882 5.92 5.07882C5.89517 5.05745 5.8722 5.04169 5.84736 5.0206C5.82066 4.99763 5.82333 4.97493 5.84736 4.9517C5.9662 4.88253 5.92855 4.7303 5.86659 4.66114C5.82176 4.64026 5.77258 4.63046 5.72318 4.63256C5.68309 4.63474 5.64393 4.64549 5.60835 4.66407C5.52502 4.74393 5.50526 4.87211 5.57096 4.95196C5.63478 4.98214 5.69861 5.0465 5.65615 5.08202C5.47535 5.2751 5.00479 5.59771 4.98103 5.65673L4.98022 5.6586V5.66154L4.98103 5.66341L4.98156 5.66394ZM5.69354 4.80348L5.69914 4.80241C5.72852 4.79947 5.76404 4.82645 5.7814 4.86464C5.79983 4.90523 5.79075 4.94422 5.7603 4.9517C5.73012 4.95917 5.69087 4.9322 5.67244 4.89134C5.65401 4.85075 5.66336 4.81096 5.69354 4.80348ZM8.50192 5.10712C8.71284 5.38948 8.91623 5.67738 9.11188 5.97052C9.14259 6.18951 9.1653 6.40369 9.17972 6.61681C9.2115 7.08442 9.22111 7.66661 9.19227 8.15907C9.27986 8.16254 9.42034 8.01752 9.46947 7.80521C9.50152 7.51145 9.45799 6.91244 9.45505 6.73912C9.45228 6.65655 9.44845 6.57402 9.44357 6.49155C9.68268 6.8822 9.90499 7.28288 10.1099 7.69252C10.1889 7.65486 10.1716 7.20914 10.1251 7.14665C9.95125 6.7725 9.71116 6.40316 9.63452 6.26135C9.60701 6.21008 9.51274 6.06693 9.40111 5.90189C9.38054 5.66634 9.35811 5.46685 9.34369 5.4065C9.3079 5.1576 9.44597 5.43454 9.42701 5.28979C9.38215 5.04116 9.24488 4.87211 9.08277 4.64431C9.03043 4.57034 9.0315 4.55511 8.95085 4.66247C8.90251 4.77197 8.90331 4.86303 8.91747 4.94822C8.89091 4.9093 8.86248 4.87169 8.83227 4.83553C8.69234 4.71535 8.68379 4.70894 8.56735 4.61093C8.53076 4.58503 8.46106 4.54497 8.40765 4.54977C8.3756 4.55271 8.35023 4.5714 8.34062 4.61867C8.3278 4.72977 8.33448 4.79013 8.35317 4.88253C8.36786 4.94422 8.45759 5.0473 8.50192 5.10712ZM8.94844 5.0903C8.95378 5.11433 8.95913 5.13837 8.96286 5.16294C8.97488 5.21582 8.9853 5.26843 8.99625 5.32077C8.964 5.27507 8.93024 5.23044 8.89503 5.18697C8.79008 5.06226 8.89717 5.10499 8.94844 5.0903Z" fill="white"/>
<path id="Vector_9" d="M6.3567 5.98483C6.50358 6.04572 6.59678 5.76611 6.65687 5.45979C6.698 5.3738 6.72951 5.36392 6.75061 5.40825C6.74527 5.81524 6.77972 5.90631 6.8844 6.02969C7.11781 6.20996 7.3109 6.05239 7.32612 6.03744L7.50772 5.85584C7.54831 5.81338 7.60172 5.8107 7.65887 5.84809C7.71442 5.89857 7.70721 5.98563 7.82632 6.04598C7.92647 6.08604 8.14011 6.0556 8.18978 5.9696C8.25655 5.8553 8.27257 5.81605 8.30355 5.77252C8.35109 5.70922 8.43254 5.73726 8.43254 5.75729C8.42506 5.79254 8.37699 5.82753 8.40957 5.89109C8.46619 5.93355 8.47928 5.90631 8.51292 5.8967C8.6315 5.84008 8.72043 5.58317 8.72043 5.58317C8.72577 5.4873 8.67102 5.49451 8.63631 5.51427C8.59091 5.54204 8.58797 5.55139 8.54257 5.57917C8.48462 5.58771 8.37245 5.6259 8.3169 5.53991C8.26029 5.43656 8.25975 5.29234 8.21649 5.18792C8.21649 5.18045 8.14065 5.02395 8.21088 5.0138C8.24613 5.02048 8.32225 5.03997 8.33426 4.97641C8.37138 4.91446 8.25415 4.739 8.17456 4.65034C8.10539 4.57449 8.00979 4.56514 7.91738 4.64259C7.85249 4.70215 7.8621 4.76864 7.84955 4.83194C7.83299 4.90431 7.8362 4.99431 7.90991 5.09018C7.97454 5.21757 8.09204 5.38127 8.05332 5.61228C8.05332 5.61228 7.98495 5.72231 7.86504 5.70789C7.8151 5.69694 7.73338 5.67531 7.69012 5.3551C7.65727 5.11261 7.6984 4.77318 7.59558 4.61402C7.57235 4.55393 7.55232 4.49571 7.5192 4.50025C7.49917 4.50292 7.47487 4.52856 7.44069 4.59025C7.41638 4.65461 7.31143 4.75235 7.38727 4.95371C7.44923 5.08137 7.4746 5.28861 7.44656 5.51988C7.40356 5.58557 7.39395 5.60827 7.3376 5.6737C7.25855 5.75863 7.17283 5.737 7.10713 5.70522C7.04571 5.66382 6.99737 5.64246 6.96933 5.51107C6.9744 5.30142 6.98669 4.95852 6.94823 4.88561C6.89188 4.77292 6.79868 4.81324 6.75889 4.84742C6.56767 5.02208 6.4734 5.31718 6.41572 5.55219C6.36284 5.72338 6.30622 5.6737 6.2667 5.6048C6.17002 5.51427 6.16335 4.80683 6.04664 4.923C5.85943 5.45712 6.1532 6.04171 6.3567 5.98483Z" fill="white"/>
<path id="Vector_10" d="M7.18392 4.97556C7.2563 4.78034 7.25656 4.69702 7.26137 4.61423C7.25015 4.55121 7.22265 4.52076 7.19167 4.52343C7.16069 4.5261 7.12597 4.56242 7.09793 4.63239C7.0739 4.68554 7.04425 4.96408 7.04933 4.96408C7.02983 5.04687 7.13559 5.08212 7.18392 4.97556ZM6.42842 4.9299C6.44623 4.91884 6.46155 4.90421 6.47341 4.88692C6.48527 4.86964 6.49341 4.85008 6.49732 4.82948C6.51441 4.74429 6.40758 4.86981 6.39396 4.775C6.3702 4.68687 6.4383 4.65082 6.50292 4.56563C6.50426 4.52557 6.50506 4.49272 6.47916 4.49192C6.46741 4.49165 6.44951 4.49806 6.42468 4.51302C6.36886 4.55041 6.25777 4.66604 6.25456 4.79877C6.25109 4.87381 6.23693 4.87355 6.28607 4.92108C6.32159 4.97236 6.35684 4.96728 6.42842 4.9299Z" fill="white"/>
</g>
</svg>
