<svg width="13" height="14" viewBox="0 0 13 14" fill="none" xmlns="http://www.w3.org/2000/svg">
<g id="Icon">
<path id="Vector" d="M12.9813 5.50829C12.9365 5.3704 12.8174 5.2699 12.6739 5.24908L8.64387 4.66345L6.84153 1.01161C6.77739 0.881607 6.64498 0.799316 6.50002 0.799316C6.35504 0.799316 6.22266 0.881607 6.15849 1.01161L4.35607 4.66345L0.326087 5.24908C0.182656 5.2699 0.0634476 5.3704 0.0186587 5.50827C-0.0261556 5.64616 0.0112193 5.79752 0.115041 5.8987L3.03109 8.74127L2.34281 12.7551C2.31828 12.898 2.37703 13.0423 2.49431 13.1276C2.56066 13.1758 2.63924 13.2003 2.7182 13.2003C2.77884 13.2003 2.83967 13.1859 2.89538 13.1566L6.5 11.2615L10.1045 13.1565C10.2328 13.224 10.3883 13.2128 10.5056 13.1276C10.6228 13.0423 10.6816 12.8979 10.6571 12.755L9.9686 8.74127L12.885 5.89867C12.9888 5.79752 13.0262 5.64616 12.9813 5.50829Z" fill="#D6D6D6"/>
</g>
</svg>
