<svg width="164" height="224" viewBox="0 0 164 224" fill="none" xmlns="http://www.w3.org/2000/svg">
<path id="Vector" d="M195.934 103.492L195.933 103.494C189.246 111.234 175.999 127.627 160.278 152.824C148.616 171.506 135.598 195.016 122.927 223.436C122.908 223.421 122.887 223.403 122.863 223.38C122.567 223.103 122.154 222.48 121.684 221.462C120.758 219.454 119.703 216.11 118.915 211.562C117.339 202.474 116.838 188.639 120.505 171.203L120.661 170.463L119.919 170.61C113.712 171.834 107.288 172.456 100.716 172.456C45.3772 172.456 0.5 127.469 0.5 71.9779C0.5 32.5245 23.1917 -1.62476 56.2073 -18.0677L56.2074 -18.0678C69.6068 -24.7433 84.721 -28.5 100.716 -28.5C132.008 -28.5 159.964 -14.103 178.334 8.42447C183.443 15.8841 185.028 22.3442 184.491 27.8634C183.954 33.3912 181.283 38.0454 177.755 41.8721C170.688 49.5363 160.275 53.7837 157.158 54.9373C157.116 54.9513 157.076 54.9648 157.036 54.9778C157.036 54.9757 157.037 54.9735 157.037 54.9714C157.083 54.4223 157.093 53.6217 156.961 52.5845L156.954 52.5333L156.937 52.4846C154.925 46.6539 152.033 41.2572 148.429 36.4222C148.412 36.3873 148.391 36.3522 148.364 36.3179C143.816 30.1932 138.119 25.0038 131.583 21.0261C131.549 20.9999 131.518 20.9814 131.5 20.9707C131.473 20.9553 131.447 20.9413 131.421 20.929C122.464 15.4968 111.95 12.3699 100.716 12.3699C67.8829 12.3699 41.2613 39.0626 41.2613 71.9779C41.2613 104.893 67.8829 131.586 100.716 131.586C119.507 131.586 136.257 122.863 147.149 109.223L147.189 109.172L147.194 109.162C147.212 109.139 147.239 109.102 147.264 109.051C149.259 106.592 151.016 103.969 152.54 101.216C162.392 87.1143 174.899 72.19 190.647 56.6937L198.962 92.136L198.962 92.1361L200.451 98.4923C200.415 98.5303 200.374 98.5737 200.328 98.6226C200.122 98.8401 199.816 99.1655 199.417 99.5988C198.618 100.465 197.442 101.763 195.934 103.492Z" stroke="#475DD7" stroke-opacity="0.5"/>
</svg>
