<svg width="174" height="219" viewBox="0 0 174 219" fill="none" xmlns="http://www.w3.org/2000/svg">
<path id="Vector" d="M174 110.489C174 110.489 172.546 111.985 169.941 114.971C164.165 121.657 152.711 135.828 139.115 157.619C129.021 173.789 117.75 194.143 106.78 218.754C105.624 221.332 97.5233 203.5 103.894 173.209C98.4923 174.274 92.9034 174.816 87.187 174.816C39.0416 174.816 0 135.679 0 87.4078C0 53.0863 19.7418 23.3795 48.4641 9.07568C60.1222 3.2681 73.2721 0 87.187 0C114.418 0 138.745 12.5313 154.726 32.1356C172.623 58.242 141.593 71.0673 136.191 73.0656C135.689 73.2318 135.409 73.3255 135.409 73.3255C135.409 73.3255 135.668 72.4095 135.447 70.6753C133.713 65.6517 131.218 61.0031 128.107 56.8402C128.107 56.8402 128.107 56.8231 128.09 56.8018C124.18 51.5354 119.28 47.0742 113.657 43.657C113.64 43.64 113.602 43.6187 113.563 43.6016C105.871 38.9317 96.839 36.2431 87.187 36.2431C59.0044 36.2431 36.1515 59.1538 36.1515 87.4078C36.1515 115.662 59.0044 138.572 87.187 138.572C103.316 138.572 117.694 131.086 127.045 119.377C127.062 119.339 127.1 119.322 127.1 119.283C128.834 117.153 130.36 114.878 131.682 112.487C140.343 100.088 151.368 86.9604 165.283 73.3298L172.657 104.758L174 110.489Z" fill="white"/>
</svg>
